Coordinates
version=1
nRows=4
nColumns=63
inDegrees=yes

Units are S.I. units (second, meters, Newtons, ...)
If the header above contains a line with 'inDegrees', this indicates whether rotational values are in degrees (yes) or radians (no).

endheader
time	pelvis_tilt	pelvis_list	pelvis_rotation	pelvis_tx	pelvis_ty	pelvis_tz	hip_flexion_r	hip_adduction_r	hip_rotation_r	knee_angle_r	knee_angle_r_beta	ankle_angle_r	subtalar_angle_r	mtp_angle_r	hip_flexion_l	hip_adduction_l	hip_rotation_l	knee_angle_l	knee_angle_l_beta	ankle_angle_l	subtalar_angle_l	mtp_angle_l	L5_S1_Flex_Ext	L5_S1_Lat_Bending	L5_S1_axial_rotation	L4_L5_Flex_Ext	L4_L5_Lat_Bending	L4_L5_axial_rotation	L3_L4_Flex_Ext	L3_L4_Lat_Bending	L3_L4_axial_rotation	L2_L3_Flex_Ext	L2_L3_Lat_Bending	L2_L3_axial_rotation	L1_L2_Flex_Ext	L1_L2_Lat_Bending	L1_L2_axial_rotation	L1_T12_Flex_Ext	L1_T12_Lat_Bending	L1_T12_axial_rotation	Abs_r3	Abs_r2	Abs_r1	Abs_t1	Abs_t2	neck_flexion	neck_bending	neck_rotation	arm_flex_r	arm_add_r	arm_rot_r	elbow_flex_r	pro_sup_r	wrist_flex_r	wrist_dev_r	arm_flex_l	arm_add_l	arm_rot_l	elbow_flex_l	pro_sup_l	wrist_flex_l	wrist_dev_l
      0.00000000	      4.93879292	     -3.07954475	    120.50823315	      0.30268120	      0.52587303	      0.97598965	      8.88161189	     -4.49825252	    -19.82091274	     15.35297513	      0.26795997	     31.47591524	     15.19742716	      0.00000000	     10.45507936	      3.20481516	      8.34178398	     13.11849312	      0.22896090	     24.08868798	     -1.89538422	      0.00000000	      0.23671324	      0.30896983	     -1.81513459	      0.43960016	      0.41092987	     -1.92858050	      0.38889618	      0.75122923	     -1.92858050	      0.27053956	      0.75122923	     -1.58824276	      0.21981192	      0.63005127	     -1.47479685	      0.13525795	      0.47859426	     -1.36135094	      1.69081901	      3.49512846	    -10.09523404	      0.00000000	      0.00000000	     26.03350716	      1.94653023	     12.56135146	     14.84300395	     -9.31336502	     55.90760368	     36.03154156	     71.02459476	      3.77690043	     -4.41347738	     14.81515817	     -4.32377495	     57.43894917	     34.33045557	     24.85198727	      3.68997548	      7.22727436
      0.01851852	      4.85624762	     -3.14582130	    119.80509710	      0.30471107	      0.52754947	      0.97595597	      9.25110917	     -4.37738352	    -18.22492424	     15.42503223	      0.26921760	     31.30172173	     14.00331892	      0.00000000	     10.53877383	      3.13871109	      7.71351141	     13.24073377	      0.23109440	     23.82447922	     -2.13889686	      0.00000000	      0.22916309	      0.26543291	     -1.72154369	      0.42557878	      0.35302577	     -1.82914017	      0.37649205	      0.64537357	     -1.82914017	      0.26191050	      0.64537357	     -1.50635073	      0.21280085	      0.54127078	     -1.39875425	      0.13094379	      0.41115557	     -1.29115777	      1.63688907	      3.00263013	     -9.57470955	      0.00000000	      0.00000000	     24.87381884	      1.80842816	     11.43619508	     15.24833887	     -8.94465779	     58.42555854	     37.71497990	     82.84054048	      1.31350940	     -4.34716349	     16.61896868	     -6.25267942	     66.85040082	     38.53184615	     30.20463137	     -4.29177268	      6.01475391
      0.03703704	      4.71378078	     -3.19974556	    119.25885391	      0.30669950	      0.52880780	      0.97594376	      9.51826512	     -4.34921214	    -17.08750447	     15.52872761	      0.27102743	     31.21339083	     13.20558332	      0.00000000	     10.58101284	      3.10703477	      6.95700534	     13.34890107	      0.23298228	     23.74677259	     -1.92428327	      0.00000000	      0.22010676	      0.21643503	     -1.66661046	      0.40876026	      0.28785859	     -1.77077362	      0.36161339	      0.52624013	     -1.77077362	      0.25156001	      0.52624013	     -1.45828416	      0.20439114	      0.44135431	     -1.35412100	      0.12576900	      0.33525786	     -1.24995785	      1.57220057	      2.44835633	     -9.26918742	      0.00000000	      0.00000000	     23.96256389	      1.98246979	     10.70609451	     16.17272870	     -8.93907035	     63.41953937	     38.97461257	     87.24995094	     -2.32068569	     -4.16217068	     18.37490611	     -7.49781695	     72.76642506	     41.84464436	     35.29691104	    -10.55735416	      8.78493508
      0.05555556	      4.56531384	     -3.29386449	    118.67803244	      0.30875070	      0.52968472	      0.97574081	      9.84268615	     -4.24532308	    -15.27329711	     15.68887384	      0.27382250	     31.04924334	     11.49317515	      0.00000000	     10.64280503	      2.97972624	      5.24522588	     13.43258198	      0.23444278	     23.99273671	     -0.33536161	      0.00000000	      0.21557725	      0.17299483	     -1.68342871	      0.40034852	      0.23008312	     -1.78864301	      0.35417187	      0.42061962	     -1.78864301	      0.24638324	      0.42061962	     -1.47300013	      0.20018504	      0.35277105	     -1.36778583	      0.12318084	      0.26796898	     -1.26257154	      1.53984676	      1.95695207	     -9.36272548	      0.00000000	      0.00000000	     23.36707626	      2.42594061	     10.87719102	     17.44361312	     -8.91395413	     69.10734848	     39.63102856	     88.19703508	     -5.24146433	     -3.97763552	     18.54291515	     -8.28721133	     71.74444725	     44.09710763	     46.59665784	    -11.75959383	     15.76993170
